<svg width="512" height="512" viewBox="0 0 512 512" xmlns="http://www.w3.org/2000/svg">
  <defs>
    <linearGradient id="bg" x1="76" y1="72" x2="432" y2="438" gradientUnits="userSpaceOnUse">
      <stop offset="0" stop-color="#D9ECFF"/>
      <stop offset="1" stop-color="#CFF7EF"/>
    </linearGradient>
    <filter id="softShadow" x="-20%" y="-20%" width="140%" height="140%">
      <feDropShadow dx="0" dy="8" stdDeviation="10" flood-color="#64748B" flood-opacity="0.16"/>
    </filter>
  </defs>

  <rect x="32" y="32" width="448" height="448" rx="96" fill="url(#bg)"/>

  <g filter="url(#softShadow)">
    <path
      d="M132 267L246 160C252 154.5 260 154.5 266 160L380 267V388C380 401.3 369.3 412 356 412H156C142.7 412 132 401.3 132 388V267Z"
      fill="#FFFFFF"/>
    <path
      d="M105 275L245 146C251.2 140.3 260.8 140.3 267 146L407 275"
      fill="none"
      stroke="#FFFFFF"
      stroke-width="34"
      stroke-linecap="round"
      stroke-linejoin="round"/>
    <rect x="308" y="177" width="31" height="76" rx="9" fill="#FFFFFF"/>
  </g>

  <rect x="220" y="323" width="27" height="27" rx="6" fill="#D6F4F1"/>
  <rect x="265" y="323" width="27" height="27" rx="6" fill="#D6F4F1"/>
  <rect x="220" y="366" width="27" height="27" rx="6" fill="#D6F4F1"/>
  <rect x="265" y="366" width="27" height="27" rx="6" fill="#D6F4F1"/>

  <path
    d="M118 374L178 321L236 265L300 310L358 263L405 215"
    fill="none"
    stroke="#2DBDB3"
    stroke-width="18"
    stroke-linecap="round"
    stroke-linejoin="round"/>
  <path
    d="M376 216L407 214L405 245"
    fill="none"
    stroke="#2DBDB3"
    stroke-width="18"
    stroke-linecap="round"
    stroke-linejoin="round"/>

  <circle cx="386" cy="126" r="52" fill="#FFFFFF" filter="url(#softShadow)"/>
  <text
    x="386"
    y="144"
    text-anchor="middle"
    font-family="Arial, Helvetica, sans-serif"
    font-size="54"
    font-weight="700"
    fill="#2DBDB3">¥</text>
</svg>
